<svg width="205" height="103" viewBox="0 0 205 103" fill="none" xmlns="http://www.w3.org/2000/svg">
<path d="M136.217 43.3794C137.069 43.1585 137.937 42.9867 138.813 42.864L136.217 43.3794Z" fill="#0D0D0D"/>
<path d="M131.554 45.4269C131.275 45.4882 130.995 45.5496 130.716 45.6109C130.997 45.5455 131.277 45.479 131.559 45.4136" fill="#0D0D0D"/>
<path d="M48.8265 34.8985C49.4052 34.8024 49.8952 34.7062 50.3899 34.6428C53.8825 34.1959 56.9299 34.9987 59.463 37.2474C59.6103 37.3783 59.7127 37.4918 59.7541 37.6156C61.4049 39.0984 62.1619 41.2837 62.2827 43.469C62.4299 44.1266 62.4955 44.7933 62.4483 45.4345C62.4495 45.4907 62.4449 45.5531 62.4322 45.6237C62.4299 45.6349 62.4276 45.6452 62.4265 45.6554C62.3781 46.0746 62.2781 46.4806 62.1182 46.8641C61.6051 48.395 60.6583 49.7111 59.3169 50.8554C55.8267 53.8322 50.6108 54.4386 46.5832 52.239C45.5951 51.7001 44.7392 50.9679 43.7452 50.2715C41.938 51.5855 40.072 52.9415 38.2026 54.3016C43.705 59.7358 52.777 62.5643 61.4222 57.7816C70.5034 52.7574 71.6227 42.653 67.6964 36.2923C63.2099 29.0256 53.5017 26.691 46.7984 28.6779C47.4725 30.7477 48.1478 32.8185 48.8254 34.8995L48.8265 34.8985Z" fill="#0D0D0D"/>
<path d="M48.8264 34.8989C49.405 34.8028 49.8951 34.7066 50.3898 34.6432C53.8823 34.1963 56.9297 34.9991 59.4629 37.2478C59.6102 37.3787 59.7125 37.4922 59.754 37.616C60.4511 38.2428 60.9895 38.9945 61.3875 39.8197C61.4657 39.7082 61.5497 39.5968 61.6429 39.4689C62.0421 39.5201 62.1571 39.6418 61.9662 40.0058C61.8442 40.239 61.7556 40.422 61.705 40.5734C61.7844 40.7891 61.8557 41.008 61.9178 41.2299C62.0685 41.3373 62.286 41.4467 62.5862 41.5878C63.074 41.8169 63.5618 42.0459 64.0507 42.2709C64.8387 42.6339 64.9618 42.5992 65.3932 41.8987C65.4495 41.8066 65.5117 41.7167 65.5703 41.6256C65.6589 41.6103 65.7475 41.595 65.8361 41.5796C65.8694 41.7463 65.9799 41.9406 65.9235 42.0766C65.5485 42.9683 64.9825 43.1647 63.9517 42.8149C63.8114 42.7669 63.6262 42.7413 63.4893 42.7812C62.8635 42.9632 62.4459 42.8374 62.1652 42.3722C62.2215 42.7301 62.2549 43.0911 62.2756 43.4531C62.4263 44.1167 62.4942 44.7896 62.4459 45.4369C62.447 45.4932 62.4424 45.5556 62.4298 45.6261C62.4275 45.6374 62.4252 45.6476 62.424 45.6578C62.3757 46.0771 62.2756 46.4831 62.1157 46.8666C61.6026 48.3974 60.6559 49.7135 59.3145 50.8578C55.8242 53.8347 50.6083 54.4411 46.5808 52.2414C45.5926 51.7025 44.7367 50.9703 43.7428 50.2739C41.9355 51.588 40.0696 52.944 38.2002 54.304C43.7025 59.7382 52.7745 62.5668 61.4197 57.784C70.5009 52.7599 71.6203 42.6554 67.694 36.2948C63.2074 29.028 53.4993 26.6934 46.7959 28.6804C47.4701 30.7501 48.1453 32.8209 48.8229 34.9019L48.8264 34.8989ZM65.0412 38.7419C65.5968 39.0078 66.241 39.2123 66.646 39.6111C66.8703 39.832 66.7219 40.3852 66.669 40.7799C66.6563 40.8761 66.3561 40.9415 66.0386 41.0918C66.2571 40.3181 65.8319 39.6493 64.7628 39.0855C64.8755 38.9454 65.0239 38.7327 65.0412 38.7408V38.7419ZM64.344 39.8156C64.8099 40.0457 64.9779 40.4813 64.6581 40.8495C64.4453 41.0949 63.984 41.1665 63.7228 41.278C63.1223 40.8791 62.9532 40.5141 63.2247 40.0979C63.4732 39.7164 63.9069 39.5998 64.344 39.8156ZM63.2937 38.1907C63.4732 38.3236 63.4858 38.6396 63.5698 38.8769C63.319 38.9403 63.0211 39.1069 62.8301 39.0374C62.6483 38.9709 62.577 38.659 62.3676 38.3021C62.8105 38.2377 63.1637 38.0935 63.2949 38.1907H63.2937Z" fill="#0D0D0D"/>
<path d="M62.1673 42.3708C62.448 42.8371 62.8655 42.9618 63.4914 42.7798C63.6283 42.7399 63.8135 42.7655 63.9538 42.8136C64.9846 43.1633 65.5506 42.967 65.9256 42.0752C65.9831 41.9392 65.8715 41.7449 65.8382 41.5782C65.7496 41.5936 65.661 41.6089 65.5724 41.6243C65.5126 41.7153 65.4516 41.8053 65.3953 41.8973C64.9639 42.5978 64.8396 42.6326 64.0528 42.2695C63.5638 42.0435 63.0761 41.8145 62.5883 41.5864C62.288 41.4453 62.0706 41.3359 61.9199 41.2285C62.0258 41.6028 62.1074 41.9842 62.1684 42.3708H62.1673Z" fill="#0D0D0D"/>
<path d="M61.7062 40.572C61.7568 40.4206 61.8454 40.2376 61.9673 40.0044C62.1583 39.6404 62.0432 39.5176 61.6441 39.4675C61.5509 39.5964 61.4669 39.7078 61.3887 39.8183C61.5072 40.0637 61.6118 40.3153 61.7062 40.572Z" fill="#0D0D0D"/>
<path d="M63.723 41.2786C63.1225 40.8798 62.9534 40.5147 63.2249 40.0985C63.4733 39.717 63.907 39.6005 64.3442 39.8162C64.8101 40.0463 64.9781 40.482 64.6583 40.8501C64.4454 41.0955 63.9841 41.1671 63.723 41.2786Z" fill="#0D0D0D"/>
<path d="M64.7627 39.087C64.8754 38.9469 65.0238 38.7342 65.0411 38.7424C65.5967 39.0083 66.2409 39.2128 66.6459 39.6116C66.8702 39.8325 66.7218 40.3858 66.6689 40.7805C66.6562 40.8766 66.356 40.9421 66.0385 41.0924C66.2571 40.3186 65.8318 39.6498 64.7627 39.086V39.087Z" fill="#0D0D0D"/>
<path d="M62.3677 38.3019C62.8106 38.2374 63.1637 38.0932 63.2949 38.1904C63.4744 38.3233 63.487 38.6393 63.571 38.8766C63.3202 38.94 63.0223 39.1067 62.8313 39.0371C62.6495 38.9707 62.5782 38.6588 62.3688 38.3019H62.3677Z" fill="#0D0D0D"/>
<path d="M66.3758 43.243C65.7154 40.3858 65.2093 37.5 64.8584 34.5999L66.3758 43.243Z" fill="#0D0D0D"/>
<path d="M67.1522 41.8666C66.73 40.7836 66.2354 39.7222 65.6717 38.6924C65.6349 40.0422 65.598 41.3921 65.5624 42.7419C65.5555 43.0058 65.5313 43.3023 65.3093 43.4762C65.0896 42.3932 64.871 41.3113 64.6513 40.2284C64.3073 41.4964 65.1678 42.8299 64.8814 44.1092C64.2555 42.8299 63.739 41.5087 63.3364 40.1598C63.3444 40.8256 63.3513 41.4913 63.3594 42.157C63.2846 41.7868 63.211 41.4156 63.1362 41.0454C63.0856 41.2602 63.1086 41.4872 63.1995 41.6907" fill="#0D0D0D"/>
<path d="M63.2616 42.2471C62.7589 40.798 62.2561 39.35 61.7534 37.901C62.4022 38.1474 63.0614 38.399 63.5986 38.807C64.1359 39.215 64.5431 39.8092 64.519 40.4401C63.953 39.4318 63.387 38.4246 62.821 37.4163C62.752 37.9961 62.9303 38.5749 63.1063 39.1363C63.5618 40.5915 64.0174 42.0467 64.4729 43.5018C64.2958 42.242 64.007 40.9954 63.6124 39.7754" fill="#0D0D0D"/>
<path d="M63.3096 42.8442C63.1968 42.5282 63.083 42.2122 62.9702 41.8972L63.3096 42.8442Z" fill="#0D0D0D"/>
<path d="M62.9947 42.5355C62.8084 41.4822 62.4379 40.4555 61.9019 39.5034L62.9947 42.5355Z" fill="#0D0D0D"/>
<path d="M40.9908 49.1599H40.9897C39.1071 49.1599 37.5811 50.5165 37.5811 52.1899V70.7105C37.5811 72.3839 39.1071 73.7405 40.9897 73.7405H40.9908C42.8733 73.7405 44.3994 72.3839 44.3994 70.7105V52.1899C44.3994 50.5165 42.8733 49.1599 40.9908 49.1599Z" fill="#0D0D0D"/>
<path d="M78.8722 37.2454H78.7538C76.9036 37.2454 75.4038 38.5786 75.4038 40.2232V70.7636C75.4038 72.4083 76.9036 73.7415 78.7538 73.7415H78.8722C80.7224 73.7415 82.2222 72.4083 82.2222 70.7636V40.2232C82.2222 38.5786 80.7224 37.2454 78.8722 37.2454Z" fill="#0D0D0D"/>
<path d="M150.537 56.5012H150.536C148.654 56.5012 147.127 57.8578 147.127 59.5312V71.0111C147.127 72.6845 148.654 74.0411 150.536 74.0411H150.537C152.42 74.0411 153.946 72.6845 153.946 71.0111V59.5312C153.946 57.8578 152.42 56.5012 150.537 56.5012Z" fill="#0D0D0D"/>
<path d="M163.608 56.3662H163.606C161.724 56.3662 160.198 57.7228 160.198 59.3962V71.0152C160.198 72.6886 161.724 74.0452 163.606 74.0452H163.608C165.49 74.0452 167.016 72.6886 167.016 71.0152V59.3962C167.016 57.7228 165.49 56.3662 163.608 56.3662Z" fill="#0D0D0D"/>
<path d="M126.094 74.0289C123.505 74.0289 122.211 72.8232 122.211 70.4129V51.2379C122.211 48.8276 123.567 47.6219 126.279 47.6219C126.846 47.6219 127.377 47.7047 127.873 47.8704C127.985 47.9082 128.32 48.0248 128.621 48.1966C129.851 48.9012 129.716 50.0762 130.344 50.2142C130.996 50.3574 131.231 49.0372 133.058 48.1148C134.578 47.3478 136.18 46.9644 137.865 46.9644C139.18 46.9644 140.186 47.3202 140.885 48.033C141.584 48.7447 141.933 49.6487 141.933 50.745C141.933 51.7676 141.625 52.5253 141.008 53.0182C140.392 53.5111 139.735 53.7218 139.037 53.6482C138.708 53.6124 138.347 53.5848 137.958 53.5664C137.566 53.548 137.145 53.5387 136.694 53.5387C134.804 53.5387 133.212 54.0777 131.918 55.1545C130.624 56.2323 129.976 57.8112 129.976 59.8933V70.4119C129.976 72.8222 128.682 74.0279 126.094 74.0279V74.0289Z" fill="#0D0D0D"/>
<path d="M150.866 53.3179C152.949 53.3179 154.638 51.8166 154.638 49.9647C154.638 48.1128 152.949 46.6116 150.866 46.6116C148.783 46.6116 147.094 48.1128 147.094 49.9647C147.094 51.8166 148.783 53.3179 150.866 53.3179Z" fill="#BFF600"/>
<path d="M163.895 53.3179C165.978 53.3179 167.667 51.8166 167.667 49.9647C167.667 48.1128 165.978 46.6116 163.895 46.6116C161.812 46.6116 160.123 48.1128 160.123 49.9647C160.123 51.8166 161.812 53.3179 163.895 53.3179Z" fill="#BFF600"/>
<path d="M47.5583 35.332C49.6416 35.332 51.3304 33.8308 51.3304 31.9789C51.3304 30.127 49.6416 28.6257 47.5583 28.6257C45.475 28.6257 43.7861 30.127 43.7861 31.9789C43.7861 33.8308 45.475 35.332 47.5583 35.332Z" fill="#0D0D0D"/>
<path d="M40.0153 42.648C42.0986 42.648 43.7874 41.1467 43.7874 39.2948C43.7874 37.4429 42.0986 35.9417 40.0153 35.9417C37.932 35.9417 36.2432 37.4429 36.2432 39.2948C36.2432 41.1467 37.932 42.648 40.0153 42.648Z" fill="#BFF600"/>
<path d="M91.2862 49.21H89.8919C88.2756 49.21 86.9653 50.3747 86.9653 51.8115V56.8121C86.9653 58.2489 88.2756 59.4136 89.8919 59.4136H91.2862C92.9025 59.4136 94.2128 58.2489 94.2128 56.8121V51.8115C94.2128 50.3747 92.9025 49.21 91.2862 49.21Z" fill="#0D0D0D"/>
<path d="M113.692 46.449H113.041C111.22 46.449 109.743 47.7616 109.743 49.3808V56.4819C109.743 58.1011 111.22 59.4137 113.041 59.4137H113.692C115.514 59.4137 116.991 58.1011 116.991 56.4819V49.3808C116.991 47.7616 115.514 46.449 113.692 46.449Z" fill="#0D0D0D"/>
<path d="M90.9008 46.449H90.2773C88.4482 46.449 86.9653 47.7671 86.9653 49.3931V56.5718C86.9653 58.1978 88.4482 59.516 90.2773 59.516H90.9008C92.73 59.516 94.2128 58.1978 94.2128 56.5718V49.3931C94.2128 47.7671 92.73 46.449 90.9008 46.449Z" fill="#0D0D0D"/>
<path d="M116.797 49.8726C115.473 47.5482 111.441 47.9951 109.805 49.8388V61.694C109.805 64.1698 109.106 65.9317 107.709 66.9809C106.312 68.0291 104.417 68.5537 102.028 68.5537C99.6382 68.5537 97.7331 68.0291 96.3182 66.9809C94.902 65.9328 94.1945 64.1698 94.1945 61.694V49.4993C91.7856 49.4472 89.3767 49.4196 86.9678 49.4349V61.9988C86.9678 66.0483 88.2459 69.0701 90.802 71.0653C93.3582 73.0604 97.0993 74.0585 102.029 74.0585C106.958 74.0585 110.69 73.0614 113.228 71.0653C115.766 69.0701 117.034 66.0483 117.034 61.9988V50.0679C116.941 50.0372 116.858 49.9738 116.8 49.8716L116.797 49.8726Z" fill="#0D0D0D"/>
</svg>
