<svg width="419" height="301" viewBox="0 0 419 301" fill="none" xmlns="http://www.w3.org/2000/svg">
<path d="M30.84 269.768C25.1282 264.063 21.9941 256.431 21.9941 248.3C21.9941 240.168 25.1097 232.629 30.84 226.924C36.5518 221.127 44.1922 218.015 52.3333 218.015C60.4745 218.015 68.0222 221.127 73.8267 226.924C74.7725 227.869 75.2176 229.091 75.2176 230.388C75.2176 231.685 74.791 232.981 73.7525 234.018C72.714 235.056 71.5086 235.482 70.1919 235.482C68.8753 235.482 67.5957 235.056 66.6313 234.018C62.8111 230.203 57.7113 228.128 52.3333 228.128C46.9554 228.128 41.837 230.203 38.0353 234.018C34.2337 237.834 32.0639 242.928 32.0639 248.3C32.0639 253.671 34.2337 258.784 38.0353 262.581C41.9297 266.563 47.1408 268.545 52.3333 268.545C56.9324 268.545 61.4388 266.989 65.1663 263.952V253.301H52.5188C49.7371 253.301 47.4004 251.06 47.4004 248.281C47.4004 245.503 49.7371 243.261 52.5188 243.261H70.1919C72.9736 243.261 75.2176 245.521 75.2176 248.281V266.119C75.2176 267.508 74.6983 268.805 73.7525 269.749C67.8553 275.64 60.0665 278.585 52.3519 278.585C44.6373 278.585 36.7558 275.64 30.8585 269.749L30.84 269.768Z" fill="white"/>
<path d="M132.354 271.676C132.614 272.287 132.706 272.972 132.706 273.584C132.706 276.177 130.722 278.603 127.681 278.603C125.678 278.603 123.786 277.399 123.007 275.399L119.187 265.971H95.691L91.8708 275.399C91.0919 277.399 89.1818 278.603 87.1975 278.603C84.2489 278.603 82.1719 276.084 82.1719 273.584C82.1719 272.898 82.2646 272.287 82.5242 271.676L102.719 221.201C103.498 219.293 105.408 217.996 107.485 217.996C109.562 217.996 111.38 219.293 112.159 221.201L132.354 271.676ZM115.107 255.913L107.485 236.612L99.7708 255.913H115.107Z" fill="white"/>
<path d="M178.03 270.898C178.549 271.769 178.809 272.621 178.809 273.584C178.809 275.232 177.937 276.881 176.379 277.826C175.6 278.344 174.655 278.603 173.783 278.603C172.058 278.603 170.408 277.733 169.443 276.27L158.261 258.432H149.768V273.584C149.768 276.362 147.431 278.603 144.649 278.603C141.867 278.603 139.624 276.362 139.624 273.584V223.035C139.624 220.256 141.886 218.015 144.649 218.015H158.428C158.947 218.015 163.546 218.108 168.312 220.441C175.081 223.813 178.809 230.055 178.809 238.186C178.809 238.705 178.716 243.373 176.379 248.059C174.562 251.616 171.966 254.301 168.757 256.024L178.03 270.916V270.898ZM149.768 248.3H158.428C162.767 248.3 165.531 246.837 167.181 243.706C168.572 241.113 168.646 238.335 168.646 238.168C168.646 233.834 167.088 231.074 163.787 229.425C161.191 228.128 158.409 228.128 158.409 228.128H149.749V248.3H149.768Z" fill="white"/>
<path d="M235.926 271.676C236.186 272.287 236.279 272.972 236.279 273.584C236.279 276.177 234.294 278.603 231.253 278.603C229.25 278.603 227.359 277.399 226.58 275.399L222.759 265.971H199.263L195.443 275.399C194.664 277.399 192.754 278.603 190.77 278.603C187.821 278.603 185.744 276.084 185.744 273.584C185.744 272.898 185.837 272.287 186.096 271.676L206.292 221.201C207.071 219.293 208.981 217.996 211.058 217.996C213.135 217.996 214.952 219.293 215.731 221.201L235.926 271.676ZM218.68 255.913L211.058 236.612L203.343 255.913H218.68Z" fill="white"/>
<path d="M245.811 269.768C240.099 264.063 236.965 256.432 236.965 248.3C236.965 240.168 240.08 232.63 245.811 226.924C251.522 221.127 259.163 218.015 267.304 218.015C275.445 218.015 282.993 221.127 288.797 226.924C289.743 227.869 290.188 229.092 290.188 230.388C290.188 231.685 289.762 232.981 288.723 234.019C287.685 235.056 286.479 235.482 285.163 235.482C283.846 235.482 282.566 235.056 281.602 234.019C277.782 230.203 272.682 228.128 267.304 228.128C261.926 228.128 256.808 230.203 253.006 234.019C249.204 237.834 247.035 242.928 247.035 248.3C247.035 253.672 249.204 258.784 253.006 262.581C256.9 266.564 262.112 268.546 267.304 268.546C271.903 268.546 276.41 266.99 280.137 263.952V253.301H267.49C264.708 253.301 262.371 251.06 262.371 248.281C262.371 245.503 264.708 243.262 267.49 243.262H285.163C287.944 243.262 290.188 245.521 290.188 248.281V266.119C290.188 267.508 289.669 268.805 288.723 269.75C282.826 275.64 275.037 278.585 267.323 278.585C259.608 278.585 251.726 275.64 245.829 269.75L245.811 269.768Z" fill="white"/>
<path d="M302.168 230.722C299.387 230.722 297.143 228.462 297.143 225.609C297.143 222.757 299.405 220.59 302.168 220.59C304.931 220.59 307.287 222.849 307.287 225.609C307.287 228.369 304.95 230.722 302.168 230.722ZM297.143 273.565V243.262C297.143 240.483 299.405 238.149 302.168 238.149C304.931 238.149 307.287 240.483 307.287 243.262V273.565C307.287 276.344 304.95 278.585 302.168 278.585C299.387 278.585 297.143 276.344 297.143 273.565Z" fill="white"/>
<path d="M349.568 243.28V273.584C349.568 275.658 348.27 277.566 346.267 278.252C345.655 278.511 345.062 278.603 344.45 278.603C342.985 278.603 341.594 277.918 340.63 276.788L324.329 257.228V273.584C324.329 276.362 322.085 278.603 319.211 278.603C316.336 278.603 314.185 276.362 314.185 273.584V243.28C314.185 241.113 315.483 239.205 317.486 238.52C318.098 238.26 318.691 238.168 319.303 238.168C320.768 238.168 322.159 238.853 323.124 239.983L339.499 259.543V243.262C339.499 240.409 341.761 238.149 344.524 238.149C347.287 238.149 349.55 240.391 349.55 243.262L349.568 243.28Z" fill="white"/>
<path d="M396.988 258.432C396.988 269.509 387.882 278.603 376.7 278.603C365.517 278.603 356.504 269.509 356.504 258.432C356.504 247.355 365.61 238.168 376.7 238.168C387.789 238.168 396.988 247.263 396.988 258.432ZM386.844 258.432C386.844 252.801 382.337 248.3 376.7 248.3C371.062 248.3 366.648 252.801 366.648 258.432C366.648 264.063 371.155 268.471 376.7 268.471C382.245 268.471 386.844 263.97 386.844 258.432Z" fill="white"/>
<path d="M417.146 300.312H1.85447C0.834514 300.312 0 299.479 0 298.46C0 297.441 0.834514 296.608 1.85447 296.608H417.146C418.165 296.608 419 297.441 419 298.46C419 299.479 418.165 300.312 417.146 300.312Z" fill="#EC642C"/>
<path d="M199.894 150.387C185.151 164.743 165.679 172.652 145.094 172.652C101.755 172.652 66.5016 137.458 66.5016 94.1702C66.5016 50.8821 101.755 15.6699 145.094 15.6699C152.16 15.6699 159.17 16.6146 165.957 18.4854C170.018 19.6153 174.209 17.2259 175.341 13.1693C176.472 9.11281 174.08 4.90809 170.018 3.79672C161.914 1.55544 153.532 0.425537 145.094 0.425537C93.3358 0.425537 51.2393 42.4727 51.2393 94.1702C51.2393 145.868 93.3358 187.896 145.094 187.896C169.703 187.896 192.94 178.45 210.557 161.316C219.347 152.758 226.246 142.756 231.049 131.846C233.256 126.826 229.51 121.195 224.021 121.195C221.016 121.195 218.253 122.955 217.048 125.715C213.042 134.865 207.256 143.238 199.894 150.387Z" fill="white"/>
<path d="M301.667 8.57569C278.171 1.29617 253.173 3.44483 231.271 14.5957C229.157 15.67 227.08 16.8369 225.059 18.0594C216.732 23.1162 225.782 35.5266 232.569 31.3404C234.387 30.2105 236.278 29.1547 238.207 28.173C256.548 18.8189 277.485 17.0407 297.161 23.1347C338.553 35.9526 361.808 79.9817 348.975 121.325C336.142 162.668 292.042 185.877 250.632 173.06C243.882 170.966 237.465 167.984 231.55 164.187C228.007 161.909 223.279 162.946 220.998 166.484C218.717 170.04 219.755 174.745 223.297 177.023C230.363 181.562 238.04 185.137 246.107 187.619C295.547 202.919 348.233 175.19 363.551 125.826C378.869 76.4623 351.107 23.8571 301.667 8.55717V8.57569Z" fill="white"/>
<path d="M223.761 72.5725C220.404 72.5725 217.326 70.3312 216.417 66.923C208.962 38.8237 185.058 27.8766 184.817 27.7655C180.978 26.0614 179.272 21.5603 180.978 17.726C182.684 13.8918 187.191 12.1877 191.029 13.8918C192.291 14.4475 221.814 27.9877 231.123 63.0332C232.199 67.0897 229.788 71.2389 225.727 72.3132C225.078 72.4799 224.41 72.5725 223.78 72.5725H223.761Z" fill="#EC642C"/>
<path d="M203.529 80.2411C200.172 80.2411 197.094 77.9998 196.185 74.5916C191.197 55.8093 175.563 48.9187 174.896 48.6409C171.057 46.9924 169.24 42.5468 170.871 38.6941C172.503 34.8413 176.899 33.026 180.756 34.619C181.702 35.008 203.918 44.4547 210.891 70.7017C211.967 74.7583 209.556 78.9074 205.495 79.9818C204.845 80.1485 204.178 80.2411 203.547 80.2411H203.529Z" fill="#EC642C"/>
<path d="M182.388 85.3903C179.031 85.3903 175.971 83.1675 175.062 79.7778C172.985 72.1278 167.125 69.8495 166.866 69.7569C162.879 68.4233 160.783 64.1445 162.118 60.1805C163.453 56.1981 167.811 54.068 171.799 55.4016C176.861 57.0872 186.319 63.2739 189.731 75.8139C190.825 79.8704 188.433 84.0381 184.39 85.131C183.723 85.3162 183.055 85.3903 182.388 85.3903Z" fill="#EC642C"/>
<path d="M318.005 82.8711C311.348 64.9038 294.008 52.0674 273.739 52.0674C273.386 52.0674 273.034 52.0674 272.7 52.0859C272.329 52.0859 271.958 52.0859 271.588 52.1045C271.217 52.1045 270.846 52.16 270.475 52.1786C270.123 52.1971 269.752 52.2156 269.399 52.2527C269.028 52.2897 268.676 52.3267 268.305 52.3823C267.953 52.4194 267.6 52.4564 267.248 52.512C266.877 52.5675 266.525 52.6231 266.173 52.6787C265.82 52.7343 265.468 52.7898 265.134 52.8639C264.782 52.938 264.429 52.9936 264.077 53.0677C263.725 53.1418 263.391 53.2159 263.038 53.2899C262.686 53.364 262.334 53.4566 262 53.5493C261.648 53.6419 261.314 53.7345 260.98 53.8271C260.646 53.9197 260.294 54.0123 259.96 54.1235C259.626 54.2346 259.274 54.3458 258.94 54.4569C258.606 54.568 258.291 54.6792 257.957 54.7903C257.605 54.92 257.253 55.0496 256.9 55.1793C256.603 55.2904 256.288 55.4016 255.991 55.5312C255.565 55.6979 255.138 55.9017 254.712 56.0869C254.304 56.2721 253.896 56.4574 253.506 56.6426C253.098 56.8464 252.672 57.0316 252.264 57.2539C251.986 57.402 251.726 57.5502 251.448 57.6984C251.114 57.8836 250.762 58.0689 250.428 58.2541C250.15 58.4208 249.872 58.569 249.612 58.7357C249.278 58.9209 248.963 59.1247 248.648 59.3284C248.37 59.4951 248.11 59.6804 247.85 59.8471C247.535 60.0508 247.22 60.2546 246.923 60.4768C246.663 60.6621 246.404 60.8473 246.144 61.0325C245.829 61.2548 245.532 61.4771 245.236 61.7179C244.994 61.9031 244.735 62.1069 244.494 62.2921C244.197 62.5329 243.9 62.7737 243.604 63.033C243.363 63.2368 243.14 63.422 242.899 63.6258C242.602 63.8851 242.287 64.1629 241.99 64.4408C241.786 64.626 241.564 64.8297 241.36 65.015C241.026 65.3299 240.711 65.6448 240.395 65.9597C240.228 66.1264 240.043 66.2931 239.876 66.4783C239.394 66.9784 238.93 67.4785 238.467 67.9972C238.43 68.0342 238.393 68.0898 238.355 68.1268C237.929 68.6084 237.521 69.09 237.131 69.5901C236.983 69.7754 236.835 69.9606 236.705 70.1458C236.427 70.4978 236.13 70.8682 235.87 71.2387C235.704 71.461 235.555 71.6832 235.388 71.9055C235.147 72.2389 234.906 72.5909 234.665 72.9428C234.498 73.1836 234.35 73.4244 234.183 73.6837C233.96 74.0171 233.756 74.3691 233.534 74.7025C233.367 74.9618 233.219 75.2211 233.07 75.4805C232.866 75.8139 232.681 76.1658 232.477 76.5177C232.328 76.7956 232.18 77.0549 232.032 77.3327C231.846 77.6847 231.679 78.0366 231.494 78.3886C231.364 78.6664 231.216 78.9442 231.086 79.2221C230.919 79.574 230.752 79.9445 230.604 80.2964C230.474 80.5743 230.344 80.8706 230.233 81.1485C230.084 81.5189 229.936 81.8894 229.788 82.2599C229.676 82.5562 229.565 82.8341 229.454 83.1304C229.306 83.5379 229.176 83.9454 229.027 84.353C228.842 84.9272 228.657 85.5199 228.49 86.1126C228.397 86.4275 228.304 86.7609 228.211 87.0758C228.1 87.4648 228.007 87.8723 227.915 88.2798C227.859 88.5206 227.785 88.7614 227.748 89.0022H184.576C184.576 89.0022 184.427 89.0022 184.372 89.0022C184.186 89.0022 184.019 89.0022 183.834 89.0393C183.611 89.0578 183.389 89.0763 183.166 89.1319H148.729C144.704 89.1319 141.088 92.0585 140.736 96.0595C140.328 100.579 143.888 104.376 148.339 104.376H175.359C175.081 105.173 174.784 105.951 174.469 106.692C174.302 107.081 174.135 107.451 173.95 107.822C173.764 108.192 173.597 108.562 173.393 108.933C173.208 109.285 173.004 109.655 172.8 110.007C172.596 110.341 172.41 110.693 172.188 111.026C172.188 111.063 172.151 111.1 172.132 111.137C171.928 111.452 171.724 111.767 171.502 112.082C171.279 112.415 171.038 112.749 170.797 113.082C170.556 113.415 170.296 113.73 170.055 114.045C170.037 114.082 170 114.101 169.981 114.138C169.48 114.749 168.98 115.323 168.442 115.898C168.164 116.194 167.885 116.49 167.589 116.768C167.311 117.046 167.014 117.342 166.717 117.62C166.161 118.12 165.604 118.602 165.011 119.065C163.676 120.139 162.266 121.084 160.783 121.918C160.43 122.121 160.06 122.307 159.707 122.492C159.41 122.64 159.114 122.788 158.798 122.936C158.687 122.992 158.557 123.047 158.446 123.103C158.131 123.251 157.797 123.381 157.482 123.529C157.222 123.64 156.963 123.751 156.684 123.844C156.592 123.881 156.48 123.918 156.388 123.955C156.221 124.011 156.054 124.085 155.887 124.14C155.256 124.381 154.607 124.585 153.94 124.77C153.569 124.881 153.179 124.974 152.809 125.066C152.53 125.141 152.234 125.215 151.937 125.27C151.733 125.307 151.547 125.363 151.343 125.4C150.583 125.548 149.823 125.678 149.062 125.77C148.673 125.807 148.284 125.863 147.894 125.881C147.783 125.881 147.672 125.9 147.56 125.9C147.227 125.918 146.874 125.937 146.522 125.956C145.335 126.011 144.13 125.993 142.757 125.9C130.703 125.103 119.873 117.657 115.589 106.377C107.003 83.7232 123.656 62.2551 145.187 62.2551C145.224 62.2551 146.837 62.2736 149.229 62.644C151.232 62.9589 158.761 62.7922 159.281 55.9943C159.577 52.0489 156.313 48.6962 152.883 47.9368C148.098 46.881 145.502 47.0107 145.205 47.0107C119.187 47.0107 98.0088 68.1454 98.0088 94.1331C98.0088 120.121 119.187 141.237 145.205 141.237C145.91 141.237 146.615 141.237 147.301 141.2C148.209 141.163 149.118 141.089 150.008 140.996C150.305 140.959 150.62 140.941 150.917 140.885C151.955 140.774 152.975 140.607 153.995 140.403C154.552 140.292 155.09 140.181 155.627 140.07C156.072 139.977 156.517 139.866 156.963 139.755C157.167 139.7 157.371 139.644 157.575 139.588C158.001 139.477 158.428 139.348 158.836 139.218C159.373 139.07 159.893 138.903 160.412 138.718C160.653 138.644 160.894 138.551 161.117 138.459C161.895 138.181 162.656 137.884 163.398 137.569C163.657 137.458 163.917 137.347 164.176 137.236C164.51 137.088 164.844 136.94 165.178 136.773C166.012 136.384 166.847 135.958 167.663 135.513C167.997 135.328 168.33 135.143 168.664 134.958C172.169 132.939 175.396 130.494 178.27 127.66C178.493 127.456 178.678 127.252 178.882 127.048C179.383 126.548 179.865 126.03 180.329 125.511C180.607 125.233 180.848 124.937 181.108 124.622C181.293 124.418 181.479 124.196 181.646 123.992C181.887 123.714 182.109 123.436 182.313 123.14C182.406 123.029 182.499 122.899 182.591 122.788C182.925 122.344 183.278 121.88 183.611 121.417C184.001 120.862 184.39 120.288 184.761 119.732C184.928 119.472 185.076 119.232 185.243 118.972C187.339 115.601 189.026 111.971 190.213 108.118C190.417 107.488 190.603 106.821 190.77 106.173C190.937 105.562 191.085 104.95 191.215 104.321H263.892C267.916 104.321 271.532 101.394 271.884 97.3931C272.292 92.8735 268.732 89.0763 264.281 89.0763H243.566C243.641 88.8726 243.696 88.6873 243.77 88.4836C243.826 88.3354 243.863 88.1872 243.919 88.0575C244.049 87.7056 244.197 87.3351 244.345 86.9832C244.382 86.9091 244.401 86.835 244.438 86.7609C244.624 86.3349 244.809 85.9274 244.994 85.5199C245.069 85.3902 245.124 85.2421 245.198 85.1124C245.328 84.8345 245.477 84.5567 245.606 84.2974C245.699 84.1307 245.773 83.9825 245.866 83.8158C245.996 83.575 246.144 83.3342 246.274 83.0934C246.367 82.9267 246.459 82.76 246.571 82.6118C246.719 82.371 246.867 82.1302 247.016 81.9079C247.109 81.7597 247.201 81.6115 247.313 81.4634C247.498 81.1855 247.702 80.9077 247.906 80.6298C247.98 80.5372 248.036 80.4446 248.11 80.352C248.37 80.0001 248.648 79.6481 248.926 79.2962C249.037 79.1665 249.148 79.0369 249.26 78.9072C249.445 78.6849 249.631 78.4626 249.816 78.2589C249.946 78.1107 250.076 77.9811 250.206 77.8329C250.391 77.6291 250.558 77.4439 250.743 77.2401C250.873 77.092 251.003 76.9623 251.151 76.8141C251.337 76.6289 251.541 76.4251 251.726 76.2399C251.856 76.1102 251.986 75.9806 252.116 75.8694C252.357 75.6286 252.616 75.4064 252.876 75.1841C252.969 75.11 253.061 75.0174 253.154 74.9433C253.469 74.6654 253.803 74.4061 254.137 74.1283C254.267 74.0171 254.415 73.9245 254.564 73.8134C254.786 73.6467 255.009 73.48 255.231 73.3133C255.398 73.2021 255.546 73.091 255.713 72.9798C255.936 72.8317 256.14 72.6835 256.362 72.5353C256.529 72.4242 256.696 72.313 256.863 72.2204C257.086 72.0722 257.327 71.9426 257.549 71.7944C257.716 71.7018 257.865 71.6091 258.031 71.498C258.328 71.3313 258.625 71.1646 258.922 71.0164C259.088 70.9238 259.237 70.8497 259.404 70.7571C259.738 70.5904 260.071 70.4237 260.424 70.257C260.591 70.1829 260.776 70.1088 260.943 70.0162C261.184 69.905 261.425 69.7939 261.685 69.7013C261.87 69.6272 262.074 69.5531 262.26 69.4605C262.501 69.3679 262.723 69.2753 262.964 69.2012C263.168 69.1271 263.354 69.053 263.558 68.9974C263.799 68.9048 264.04 68.8307 264.3 68.7566C264.504 68.701 264.689 68.627 264.893 68.5714C265.19 68.4788 265.486 68.4047 265.783 68.3306C266.061 68.2565 266.339 68.1824 266.618 68.1268C266.914 68.0527 267.23 67.9786 267.526 67.9231C267.749 67.886 267.953 67.849 268.175 67.8119C268.416 67.7749 268.658 67.7193 268.899 67.6823C269.121 67.6452 269.362 67.6082 269.585 67.5897C269.826 67.5526 270.048 67.5341 270.289 67.4971C270.531 67.4785 270.772 67.4415 271.013 67.423C271.254 67.4044 271.476 67.3859 271.717 67.3674C271.959 67.3674 272.2 67.3303 272.441 67.3303C272.7 67.3303 272.941 67.3303 273.201 67.3118C273.405 67.3118 273.609 67.3118 273.813 67.3118C283.419 67.3118 292.042 71.5721 297.903 78.2959C302.78 83.8899 305.728 91.1879 305.728 99.1713C305.728 107.155 302.576 114.934 297.42 120.602C291.579 127.03 283.16 131.068 273.832 131.068C273.72 131.068 263.28 130.901 255.528 125.159C252.672 123.047 248.611 123.122 245.922 125.437C244.79 126.419 244.067 127.604 243.659 128.864C242.676 131.883 243.659 135.328 246.348 137.329C258.254 146.201 273.182 146.312 273.813 146.312C286.646 146.312 298.311 141.163 306.823 132.828C315.576 124.27 321.009 112.36 321.009 99.1898C321.009 93.4662 319.971 87.9649 318.098 82.8896L318.005 82.8711Z" fill="white"/>
<path d="M144.779 114.101C155.83 114.101 164.789 105.153 164.789 94.1147C164.789 83.0766 155.83 74.1284 144.779 74.1284C133.728 74.1284 124.769 83.0766 124.769 94.1147C124.769 105.153 133.728 114.101 144.779 114.101Z" fill="#EC642C"/>
<path d="M154.83 97.9304H134.746C132.632 97.9304 130.926 96.2263 130.926 94.1147C130.926 92.0031 132.632 90.299 134.746 90.299H154.83C156.944 90.299 158.65 92.0031 158.65 94.1147C158.65 96.2263 156.944 97.9304 154.83 97.9304Z" fill="white"/>
<path d="M235.48 39.9726C246.531 39.9726 255.489 31.0244 255.489 19.9863C255.489 8.94816 246.531 0 235.48 0C224.428 0 215.47 8.94816 215.47 19.9863C215.47 31.0244 224.428 39.9726 235.48 39.9726Z" fill="#EC642C"/>
<path d="M245.512 16.1706H239.3V9.03924C239.3 6.92762 237.593 5.22351 235.479 5.22351C233.365 5.22351 231.659 6.92762 231.659 9.03924V16.1706H225.428C223.314 16.1706 221.608 17.8747 221.608 19.9863C221.608 22.0979 223.314 23.802 225.428 23.802H231.659V30.9334C231.659 33.045 233.365 34.7491 235.479 34.7491C237.593 34.7491 239.3 33.045 239.3 30.9334V23.802H245.512C247.626 23.802 249.332 22.0979 249.332 19.9863C249.332 17.8747 247.626 16.1706 245.512 16.1706Z" fill="white"/>
</svg>
