<svg width="218" height="67" viewBox="0 0 218 67" fill="none" xmlns="http://www.w3.org/2000/svg">
<path d="M82.2778 58C82.2778 49.3705 79.5 41.3576 79.5 33" stroke="#BFF600" stroke-width="5" stroke-linecap="round"/>
<path d="M67 49.6669C69.2673 49.4024 71.5766 48.1411 74.1429 48.0002C76.0945 47.8931 78.1098 46.8891 80.3929 46.8891C81.0111 46.8891 85.79 45.8008 86.0476 45.5002C86.637 44.8126 90.9492 44.1113 92 44.1113" stroke="#BFF600" stroke-width="5" stroke-linecap="round"/>
<path d="M10 32.9455C10 30.7665 8.20914 29 6 29C3.79086 29 2 30.7665 2 32.9455V57.0545C2 59.2335 3.79086 61 6 61C8.20914 61 10 59.2335 10 57.0545V32.9455Z" fill="white"/>
<path d="M4.71455 19.5351C7.31833 19.5351 9.4291 17.5333 9.4291 15.0639C9.4291 12.5946 7.31833 10.5928 4.71455 10.5928C2.11078 10.5928 0 12.5946 0 15.0639C0 17.5333 2.11078 19.5351 4.71455 19.5351Z" fill="#BFF600"/>
<path d="M15.7342 9.20108C16.4578 9.07312 17.0705 8.94421 17.6891 8.85985C22.0549 8.26363 25.8639 9.33473 29.0303 12.3338C29.2142 12.5082 29.3431 12.6599 29.3941 12.8239C31.458 14.8021 32.4035 17.7159 32.5544 20.6297C32.7393 21.5065 32.8213 22.3956 32.7623 23.2515C32.7643 23.3264 32.7583 23.4089 32.7423 23.5046C32.7403 23.5188 32.7373 23.533 32.7343 23.5473C32.6734 24.1056 32.5484 24.6468 32.3495 25.1596C31.7079 27.2004 30.5245 28.9559 28.8473 30.482C24.4846 34.4517 17.965 35.2602 12.9306 32.3265C11.6963 31.6071 10.6248 30.6317 9.38346 29.7018C7.12463 31.4535 4.79184 33.263 2.45605 35.0754C9.33348 42.3219 20.6736 46.0954 31.48 39.7162C42.8321 33.0156 44.2314 19.5406 39.3229 11.0589C33.7138 1.3678 21.5791 -1.74599 13.1995 0.904284C14.042 3.66451 14.8856 6.42569 15.7332 9.20108H15.7342Z" fill="white"/>
<path d="M15.7332 9.20111C16.4569 9.07314 17.0695 8.94423 17.6882 8.85987C22.0539 8.26365 25.863 9.33476 29.0293 12.3339C29.2132 12.5083 29.3422 12.6599 29.3931 12.8239C30.2647 13.6599 30.9373 14.6628 31.4351 15.7623C31.533 15.6145 31.638 15.4657 31.7549 15.2941C32.2536 15.3614 32.3976 15.5244 32.1587 16.0107C32.0058 16.3216 31.8948 16.5652 31.8319 16.7671C31.9308 17.0543 32.0198 17.3462 32.0987 17.642C32.2876 17.7842 32.5595 17.9311 32.9343 18.1188C33.544 18.424 34.1537 18.7292 34.7653 19.0306C35.7498 19.515 35.9037 19.4676 36.4435 18.5339C36.5144 18.4107 36.5914 18.2913 36.6654 18.169C36.7763 18.1491 36.8872 18.1282 36.9972 18.1083C37.0382 18.3311 37.1771 18.5889 37.1061 18.7709C36.6374 19.9596 35.9297 20.2212 34.6414 19.7548C34.4655 19.6913 34.2346 19.6562 34.0637 19.7093C33.2811 19.952 32.7604 19.7851 32.4086 19.1633C32.4795 19.6411 32.5205 20.1226 32.5465 20.6041C32.7344 21.4885 32.8194 22.3861 32.7594 23.2496C32.7614 23.3245 32.7554 23.407 32.7394 23.5027C32.7374 23.5169 32.7344 23.5312 32.7314 23.5454C32.6704 24.1037 32.5455 24.6449 32.3466 25.1577C31.7049 27.1985 30.5215 28.954 28.8444 30.4801C24.4817 34.4498 17.9621 35.2583 12.9277 32.3247C11.6933 31.6052 10.6219 30.6298 9.38053 29.7C7.1217 31.4517 4.78891 33.2612 2.45312 35.0735C9.33055 42.3201 20.6707 46.0936 31.477 39.7143C42.8291 33.0138 44.2284 19.5387 39.32 11.0571C33.7129 1.36782 21.5782 -1.74597 13.1985 0.904306C14.0411 3.66453 14.8847 6.42571 15.7322 9.20111H15.7332ZM36.0017 14.3263C36.6963 14.6808 37.5009 14.9538 38.0067 15.4856C38.2865 15.7794 38.1016 16.5178 38.0346 17.0448C38.0187 17.1737 37.6438 17.2609 37.2471 17.4609C37.5202 16.429 36.9885 15.5374 35.6519 14.786C35.7928 14.5983 35.9787 14.3149 35.9997 14.3263H36.0017ZM35.1301 15.7576C35.7118 16.0647 35.9227 16.6458 35.5229 17.1368C35.2561 17.4638 34.6804 17.5595 34.3536 17.7083C33.6029 17.1766 33.3911 16.6894 33.7309 16.1339C34.0417 15.6249 34.5834 15.4694 35.1301 15.7576ZM33.8178 13.5907C34.0427 13.768 34.0577 14.1889 34.1627 14.5054C33.8488 14.5898 33.477 14.8116 33.2371 14.7197C33.0093 14.6315 32.9203 14.2154 32.6584 13.7396C33.2121 13.6542 33.6529 13.4618 33.8168 13.5907H33.8178Z" fill="white"/>
<path d="M32.4094 19.1654C32.7613 19.7872 33.282 19.954 34.0646 19.7114C34.2355 19.6583 34.4664 19.6924 34.6423 19.7569C35.9306 20.2232 36.6383 19.9616 37.107 18.773C37.179 18.591 37.04 18.3332 36.9981 18.1104C36.8871 18.1303 36.7762 18.1512 36.6662 18.1711C36.5923 18.2924 36.5153 18.4128 36.4444 18.536C35.9046 19.4697 35.7497 19.5171 34.7662 19.0327C34.1545 18.7313 33.5449 18.426 32.9352 18.1208C32.5604 17.9331 32.2875 17.7862 32.0996 17.644C32.2315 18.1426 32.3345 18.6526 32.4104 19.1663L32.4094 19.1654Z" fill="white"/>
<path d="M31.8314 16.767C31.8943 16.5651 32.0053 16.3214 32.1582 16.0105C32.3971 15.5243 32.2521 15.3612 31.7544 15.2939C31.6375 15.4655 31.5325 15.6143 31.4346 15.7622C31.5825 16.0892 31.7144 16.4248 31.8314 16.767Z" fill="white"/>
<path d="M34.3543 17.7081C33.6036 17.1764 33.3918 16.6892 33.7316 16.1337C34.0424 15.6247 34.5841 15.4692 35.1309 15.7574C35.7126 16.0645 35.9234 16.6456 35.5237 17.1366C35.2568 17.4636 34.6811 17.5593 34.3543 17.7081Z" fill="white"/>
<path d="M35.6534 14.7862C35.7943 14.5985 35.9802 14.3151 36.0012 14.3265C36.6958 14.681 37.5004 14.954 38.0061 15.4858C38.286 15.7796 38.1011 16.518 38.0341 17.045C38.0181 17.1739 37.6433 17.2611 37.2465 17.4611C37.5197 16.4292 36.988 15.5376 35.6514 14.7862H35.6534Z" fill="white"/>
<path d="M32.6582 13.7394C33.2119 13.6541 33.6527 13.4617 33.8166 13.5906C34.0415 13.7678 34.0565 14.1887 34.1614 14.5053C33.8476 14.5896 33.4758 14.8114 33.2359 14.7195C33.008 14.6314 32.9191 14.2152 32.6572 13.7394H32.6582Z" fill="white"/>
<path d="M37.6665 20.3284C36.841 16.518 36.2083 12.6705 35.7695 8.80127L37.6665 20.3284Z" fill="white"/>
<path d="M38.6363 18.493C38.1086 17.0484 37.4899 15.6342 36.7853 14.2598C36.7393 16.0598 36.6943 17.8598 36.6483 19.6608C36.6393 20.0125 36.6104 20.4087 36.3325 20.639C36.0586 19.1954 35.7848 17.7518 35.5109 16.3081C35.0812 17.9992 36.1566 19.7774 35.7978 21.4836C35.0152 19.7783 34.3695 18.0153 33.8668 16.2162C33.8758 17.1044 33.8858 17.9925 33.8948 18.8797C33.8018 18.3859 33.7089 17.8911 33.6159 17.3973C33.5529 17.6835 33.5809 17.9868 33.6949 18.2579" fill="white"/>
<path d="M33.7747 19.0004C33.146 17.0686 32.5183 15.1368 31.8896 13.205C32.7002 13.533 33.5238 13.8695 34.1965 14.4126C34.8681 14.9558 35.3778 15.7491 35.3469 16.5899C34.6392 15.2458 33.9316 13.9017 33.224 12.5576C33.138 13.3311 33.3599 14.1027 33.5798 14.8515C34.1495 16.7918 34.7182 18.7331 35.2879 20.6734C35.066 18.9937 34.7062 17.3302 34.2124 15.7046" fill="white"/>
<path d="M33.8339 19.7977C33.693 19.3768 33.5511 18.956 33.4102 18.5342L33.8339 19.7977Z" fill="white"/>
<path d="M33.4415 19.3855C33.2086 17.9807 32.7458 16.611 32.0752 15.3418L33.4415 19.3855Z" fill="white"/>
<ellipse cx="14.6662" cy="5.05608" rx="4.33315" ry="4.40374" fill="white"/>
<path d="M127.147 59.6689C125.824 58.4282 125.098 56.7685 125.098 55C125.098 53.2315 125.82 51.592 127.147 50.3512C128.471 49.0903 130.241 48.4136 132.127 48.4136C134.013 48.4136 135.762 49.0903 137.107 50.3512C137.326 50.5567 137.429 50.8226 137.429 51.1045C137.429 51.3865 137.331 51.6685 137.09 51.8941C136.849 52.1197 136.57 52.2123 136.265 52.2123C135.96 52.2123 135.663 52.1197 135.44 51.8941C134.555 51.0643 133.373 50.6131 132.127 50.6131C130.881 50.6131 129.695 51.0643 128.814 51.8941C127.934 52.724 127.431 53.8318 127.431 55C127.431 56.1682 127.934 57.2801 128.814 58.1059C129.717 58.972 130.924 59.403 132.127 59.403C133.193 59.403 134.237 59.0646 135.101 58.404V56.0877H132.17C131.526 56.0877 130.984 55.6002 130.984 54.996C130.984 54.3917 131.526 53.9043 132.17 53.9043H136.265C136.91 53.9043 137.429 54.3957 137.429 54.996V58.8753C137.429 59.1774 137.309 59.4594 137.09 59.6649C135.724 60.9459 133.919 61.5864 132.131 61.5864C130.344 61.5864 128.518 60.9459 127.152 59.6649L127.147 59.6689Z" fill="white"/>
<path d="M150.668 60.0844C150.728 60.2174 150.75 60.3664 150.75 60.4994C150.75 61.0633 150.29 61.5911 149.585 61.5911C149.121 61.5911 148.683 61.3292 148.503 60.8941L147.617 58.8437H142.173L141.288 60.8941C141.108 61.3292 140.665 61.5911 140.205 61.5911C139.522 61.5911 139.041 61.0432 139.041 60.4994C139.041 60.3503 139.062 60.2174 139.123 60.0844L143.802 49.1071C143.982 48.6921 144.425 48.4102 144.906 48.4102C145.387 48.4102 145.808 48.6921 145.989 49.1071L150.668 60.0844ZM146.672 56.6563L144.906 52.4587L143.119 56.6563H146.672Z" fill="white"/>
<path d="M161.25 59.9146C161.371 60.104 161.431 60.2893 161.431 60.4987C161.431 60.8573 161.229 61.2158 160.868 61.4212C160.687 61.534 160.468 61.5904 160.266 61.5904C159.867 61.5904 159.484 61.4011 159.261 61.0829L156.67 57.2035H154.702V60.4987C154.702 61.103 154.161 61.5904 153.516 61.5904C152.871 61.5904 152.352 61.103 152.352 60.4987V49.5053C152.352 48.901 152.876 48.4136 153.516 48.4136H156.708C156.829 48.4136 157.894 48.4337 158.999 48.9413C160.567 49.6745 161.431 51.032 161.431 52.8005C161.431 52.9133 161.409 53.9284 160.868 54.9476C160.447 55.7211 159.845 56.3052 159.102 56.6798L161.25 59.9187V59.9146ZM154.702 55H156.708C157.714 55 158.354 54.6817 158.737 54.001C159.059 53.437 159.076 52.8327 159.076 52.7965C159.076 51.8538 158.715 51.2536 157.95 50.8951C157.349 50.6131 156.704 50.6131 156.704 50.6131H154.698V55H154.702Z" fill="white"/>
<path d="M174.665 60.0844C174.725 60.2174 174.747 60.3664 174.747 60.4994C174.747 61.0633 174.287 61.5911 173.582 61.5911C173.118 61.5911 172.68 61.3292 172.5 60.8941L171.614 58.8437H166.17L165.285 60.8941C165.105 61.3292 164.662 61.5911 164.203 61.5911C163.519 61.5911 163.038 61.0432 163.038 60.4994C163.038 60.3503 163.06 60.2174 163.12 60.0844L167.799 49.1071C167.979 48.6921 168.422 48.4102 168.903 48.4102C169.384 48.4102 169.806 48.6921 169.986 49.1071L174.665 60.0844ZM170.669 56.6563L168.903 52.4587L167.116 56.6563H170.669Z" fill="white"/>
<path d="M176.955 59.6689C175.632 58.4282 174.906 56.7685 174.906 55C174.906 53.2315 175.628 51.592 176.955 50.3512C178.279 49.0903 180.049 48.4136 181.935 48.4136C183.822 48.4136 185.57 49.0903 186.915 50.3512C187.134 50.5567 187.238 50.8226 187.238 51.1045C187.238 51.3865 187.139 51.6685 186.898 51.8941C186.657 52.1197 186.378 52.2123 186.073 52.2123C185.768 52.2123 185.472 52.1197 185.248 51.8941C184.363 51.0643 183.181 50.6131 181.935 50.6131C180.689 50.6131 179.503 51.0643 178.622 51.8941C177.742 52.724 177.239 53.8318 177.239 55C177.239 56.1682 177.742 57.2801 178.622 58.1059C179.525 58.972 180.732 59.403 181.935 59.403C183.001 59.403 184.045 59.0646 184.909 58.404V56.0877H181.978C181.334 56.0877 180.792 55.6002 180.792 54.996C180.792 54.3917 181.334 53.9043 181.978 53.9043H186.073C186.718 53.9043 187.238 54.3957 187.238 54.996V58.8753C187.238 59.1774 187.117 59.4594 186.898 59.6649C185.532 60.9459 183.727 61.5864 181.94 61.5864C180.152 61.5864 178.326 60.9459 176.96 59.6649L176.955 59.6689Z" fill="white"/>
<path d="M190.013 51.1772C189.369 51.1772 188.849 50.6857 188.849 50.0653C188.849 49.445 189.373 48.9736 190.013 48.9736C190.653 48.9736 191.199 49.4651 191.199 50.0653C191.199 50.6656 190.658 51.1772 190.013 51.1772ZM188.849 60.4948V53.9044C188.849 53.3001 189.373 52.7925 190.013 52.7925C190.653 52.7925 191.199 53.3001 191.199 53.9044V60.4948C191.199 61.0991 190.658 61.5865 190.013 61.5865C189.369 61.5865 188.849 61.0991 188.849 60.4948Z" fill="white"/>
<path d="M200.996 53.9093V60.4998C200.996 60.951 200.695 61.3659 200.231 61.5149C200.089 61.5713 199.952 61.5915 199.81 61.5915C199.47 61.5915 199.148 61.4424 198.925 61.1967L195.148 56.9427V60.4998C195.148 61.104 194.628 61.5915 193.962 61.5915C193.296 61.5915 192.797 61.104 192.797 60.4998V53.9093C192.797 53.438 193.098 53.0231 193.562 52.874C193.704 52.8176 193.841 52.7975 193.983 52.7975C194.323 52.7975 194.645 52.9465 194.868 53.1923L198.662 57.4462V53.9053C198.662 53.2849 199.187 52.7935 199.827 52.7935C200.467 52.7935 200.991 53.2809 200.991 53.9053L200.996 53.9093Z" fill="white"/>
<path d="M211.982 57.2034C211.982 59.6124 209.873 61.5904 207.282 61.5904C204.691 61.5904 202.603 59.6124 202.603 57.2034C202.603 54.7945 204.712 52.7964 207.282 52.7964C209.851 52.7964 211.982 54.7743 211.982 57.2034ZM209.632 57.2034C209.632 55.9788 208.588 54.9999 207.282 54.9999C205.976 54.9999 204.953 55.9788 204.953 57.2034C204.953 58.4281 205.997 59.3868 207.282 59.3868C208.566 59.3868 209.632 58.4079 209.632 57.2034Z" fill="white"/>
<path d="M216.652 66.3125H120.43C120.193 66.3125 120 66.1312 120 65.9097C120 65.6881 120.193 65.5068 120.43 65.5068H216.652C216.888 65.5068 217.081 65.6881 217.081 65.9097C217.081 66.1312 216.888 66.3125 216.652 66.3125Z" fill="#EC642C"/>
<path d="M166.315 33.7061C162.899 36.8281 158.387 38.5483 153.618 38.5483C143.576 38.5483 135.408 30.8943 135.408 21.48C135.408 12.0656 143.576 4.40765 153.618 4.40765C155.255 4.40765 156.879 4.6131 158.452 5.01997C159.393 5.2657 160.364 4.74604 160.626 3.86382C160.888 2.9816 160.334 2.06716 159.393 1.82545C157.515 1.33802 155.573 1.09229 153.618 1.09229C141.626 1.09229 131.872 10.2367 131.872 21.48C131.872 32.7232 141.626 41.8636 153.618 41.8636C159.32 41.8636 164.704 39.8092 168.786 36.0829C170.822 34.2218 172.421 32.0464 173.534 29.6737C174.045 28.582 173.177 27.3574 171.905 27.3574C171.209 27.3574 170.569 27.7401 170.29 28.3403C169.361 30.3303 168.021 32.1512 166.315 33.7061Z" fill="white"/>
<path d="M189.896 2.86455C184.452 1.2814 178.66 1.74869 173.585 4.17378C173.095 4.40743 172.614 4.66122 172.146 4.92709C170.217 6.02684 172.313 8.72586 173.886 7.81545C174.307 7.56972 174.745 7.3401 175.192 7.12659C179.442 5.09225 184.293 4.70553 188.852 6.03087C198.442 8.81852 203.83 18.394 200.857 27.3854C197.884 36.3767 187.666 41.4243 178.071 38.6367C176.507 38.1815 175.02 37.5329 173.65 36.7071C172.829 36.2116 171.733 36.4372 171.205 37.2066C170.676 37.98 170.917 39.0033 171.738 39.4987C173.375 40.4857 175.154 41.2632 177.023 41.803C188.478 45.1304 200.685 39.0999 204.234 28.3643C207.783 17.6286 201.351 6.18798 189.896 2.86053V2.86455Z" fill="white"/>
<path d="M171.845 16.7835C171.067 16.7835 170.354 16.2961 170.144 15.5549C168.416 9.44381 162.878 7.06303 162.822 7.03886C161.933 6.66824 161.537 5.68934 161.933 4.85547C162.328 4.02159 163.372 3.65098 164.261 4.02159C164.554 4.14244 171.394 7.0872 173.551 14.7089C173.8 15.5911 173.242 16.4935 172.301 16.7271C172.15 16.7634 171.996 16.7835 171.849 16.7835H171.845Z" fill="#EC642C"/>
<path d="M167.157 18.4508C166.379 18.4508 165.666 17.9634 165.456 17.2221C164.3 13.1373 160.678 11.6388 160.523 11.5784C159.634 11.2198 159.212 10.253 159.591 9.41511C159.969 8.57721 160.987 8.18242 161.881 8.52886C162.1 8.61346 167.247 10.6679 168.863 16.3762C169.112 17.2584 168.554 18.1607 167.613 18.3944C167.462 18.4307 167.308 18.4508 167.161 18.4508H167.157Z" fill="#EC642C"/>
<path d="M162.259 19.5708C161.482 19.5708 160.773 19.0874 160.562 18.3502C160.081 16.6865 158.723 16.191 158.663 16.1708C157.739 15.8808 157.253 14.9502 157.563 14.0882C157.872 13.2221 158.882 12.7588 159.806 13.0488C160.979 13.4154 163.17 14.7609 163.961 17.4881C164.214 18.3703 163.66 19.2767 162.723 19.5144C162.569 19.5547 162.414 19.5708 162.259 19.5708Z" fill="#EC642C"/>
<path d="M193.681 19.0227C192.138 15.1152 188.121 12.3235 183.424 12.3235C183.343 12.3235 183.261 12.3235 183.184 12.3275C183.098 12.3275 183.012 12.3275 182.926 12.3316C182.84 12.3316 182.754 12.3436 182.668 12.3477C182.586 12.3517 182.5 12.3557 182.419 12.3638C182.333 12.3718 182.251 12.3799 182.165 12.392C182.084 12.4 182.002 12.4081 181.92 12.4202C181.834 12.4323 181.753 12.4444 181.671 12.4564C181.59 12.4685 181.508 12.4806 181.431 12.4967C181.349 12.5128 181.267 12.5249 181.186 12.541C181.104 12.5572 181.027 12.5733 180.945 12.5894C180.863 12.6055 180.782 12.6256 180.704 12.6458C180.623 12.6659 180.545 12.6861 180.468 12.7062C180.391 12.7263 180.309 12.7465 180.232 12.7707C180.154 12.7948 180.073 12.819 179.995 12.8432C179.918 12.8673 179.845 12.8915 179.768 12.9157C179.686 12.9439 179.604 12.9721 179.523 13.0003C179.454 13.0244 179.381 13.0486 179.312 13.0768C179.213 13.1131 179.115 13.1574 179.016 13.1977C178.921 13.2379 178.827 13.2782 178.736 13.3185C178.642 13.3628 178.543 13.4031 178.449 13.4515C178.384 13.4837 178.324 13.5159 178.26 13.5481C178.182 13.5884 178.101 13.6287 178.023 13.669C177.959 13.7052 177.894 13.7375 177.834 13.7737C177.757 13.814 177.684 13.8583 177.611 13.9026C177.546 13.9389 177.486 13.9792 177.426 14.0154C177.353 14.0597 177.28 14.1041 177.211 14.1524C177.151 14.1927 177.091 14.233 177.031 14.2732C176.958 14.3216 176.889 14.3699 176.82 14.4223C176.764 14.4626 176.704 14.5069 176.648 14.5472C176.58 14.5995 176.511 14.6519 176.442 14.7083C176.386 14.7526 176.335 14.7929 176.279 14.8372C176.21 14.8936 176.137 14.954 176.068 15.0145C176.021 15.0548 175.969 15.0991 175.922 15.1393C175.845 15.2078 175.772 15.2763 175.699 15.3448C175.66 15.3811 175.617 15.4173 175.578 15.4576C175.467 15.5664 175.359 15.6751 175.252 15.7879C175.243 15.796 175.235 15.8081 175.226 15.8161C175.127 15.9209 175.033 16.0256 174.942 16.1344C174.908 16.1746 174.874 16.2149 174.844 16.2552C174.779 16.3318 174.71 16.4123 174.65 16.4929C174.612 16.5412 174.577 16.5896 174.539 16.6379C174.483 16.7104 174.427 16.787 174.371 16.8635C174.332 16.9159 174.298 16.9682 174.259 17.0246C174.208 17.0971 174.16 17.1737 174.109 17.2462C174.07 17.3026 174.036 17.359 174.001 17.4154C173.954 17.4879 173.911 17.5644 173.864 17.641C173.83 17.7014 173.795 17.7578 173.761 17.8182C173.718 17.8948 173.679 17.9713 173.636 18.0478C173.606 18.1083 173.572 18.1687 173.542 18.2291C173.503 18.3057 173.464 18.3862 173.43 18.4628C173.4 18.5232 173.37 18.5877 173.344 18.6481C173.31 18.7286 173.275 18.8092 173.241 18.8898C173.215 18.9542 173.189 19.0147 173.164 19.0791C173.129 19.1677 173.099 19.2564 173.065 19.345C173.022 19.4699 172.979 19.5988 172.94 19.7277C172.919 19.7962 172.897 19.8687 172.876 19.9372C172.85 20.0218 172.828 20.1104 172.807 20.199C172.794 20.2514 172.777 20.3037 172.768 20.3561H162.765C162.765 20.3561 162.731 20.3561 162.718 20.3561C162.675 20.3561 162.636 20.3561 162.594 20.3642C162.542 20.3682 162.49 20.3722 162.439 20.3843H154.46C153.527 20.3843 152.689 21.0208 152.608 21.8909C152.513 22.8739 153.338 23.6997 154.369 23.6997H160.63C160.565 23.8729 160.497 24.0421 160.424 24.2032C160.385 24.2878 160.346 24.3684 160.303 24.449C160.26 24.5295 160.222 24.6101 160.174 24.6907C160.131 24.7672 160.084 24.8478 160.037 24.9243C159.99 24.9968 159.947 25.0734 159.895 25.1459C159.895 25.1539 159.887 25.162 159.882 25.17C159.835 25.2385 159.788 25.307 159.736 25.3755C159.685 25.448 159.629 25.5205 159.573 25.593C159.517 25.6655 159.457 25.734 159.401 25.8025C159.397 25.8106 159.388 25.8146 159.384 25.8226C159.268 25.9556 159.152 26.0805 159.027 26.2053C158.963 26.2698 158.898 26.3342 158.83 26.3947C158.765 26.4551 158.696 26.5196 158.628 26.58C158.499 26.6887 158.37 26.7935 158.232 26.8942C157.923 27.1278 157.596 27.3333 157.253 27.5146C157.171 27.5589 157.085 27.5992 157.003 27.6394C156.935 27.6717 156.866 27.7039 156.793 27.7361C156.767 27.7482 156.737 27.7603 156.711 27.7724C156.638 27.8046 156.561 27.8328 156.488 27.865C156.428 27.8892 156.367 27.9134 156.303 27.9335C156.282 27.9416 156.256 27.9496 156.234 27.9577C156.196 27.9698 156.157 27.9859 156.118 27.998C155.972 28.0503 155.822 28.0947 155.667 28.1349C155.581 28.1591 155.491 28.1793 155.405 28.1994C155.341 28.2155 155.272 28.2316 155.203 28.2437C155.156 28.2518 155.113 28.2638 155.066 28.2719C154.889 28.3041 154.713 28.3323 154.537 28.3525C154.447 28.3605 154.357 28.3726 154.266 28.3766C154.241 28.3766 154.215 28.3807 154.189 28.3807C154.112 28.3847 154.03 28.3887 153.948 28.3928C153.673 28.4048 153.394 28.4008 153.076 28.3807C150.283 28.2074 147.774 26.588 146.781 24.1347C144.792 19.208 148.65 14.5391 153.639 14.5391C153.648 14.5391 154.021 14.5431 154.576 14.6237C155.04 14.6922 156.784 14.6559 156.905 13.1775C156.973 12.3195 156.217 11.5903 155.422 11.4252C154.314 11.1956 153.712 11.2238 153.643 11.2238C147.615 11.2238 142.708 15.8201 142.708 21.472C142.708 27.1238 147.615 31.7162 153.643 31.7162C153.807 31.7162 153.97 31.7162 154.129 31.7081C154.339 31.7001 154.55 31.684 154.756 31.6638C154.825 31.6558 154.898 31.6517 154.967 31.6396C155.207 31.6155 155.444 31.5792 155.68 31.5349C155.809 31.5107 155.933 31.4866 156.058 31.4624C156.161 31.4422 156.264 31.4181 156.367 31.3939C156.415 31.3818 156.462 31.3697 156.509 31.3576C156.608 31.3335 156.707 31.3053 156.801 31.2771C156.926 31.2449 157.046 31.2086 157.167 31.1683C157.223 31.1522 157.278 31.1321 157.33 31.1119C157.51 31.0515 157.687 30.987 157.858 30.9186C157.919 30.8944 157.979 30.8702 158.039 30.846C158.116 30.8138 158.194 30.7816 158.271 30.7453C158.464 30.6607 158.658 30.5681 158.847 30.4714C158.924 30.4311 159.001 30.3908 159.079 30.3506C159.891 29.9115 160.638 29.3797 161.304 28.7634C161.356 28.7191 161.399 28.6747 161.446 28.6304C161.562 28.5217 161.674 28.4089 161.781 28.2961C161.846 28.2356 161.902 28.1712 161.962 28.1027C162.005 28.0584 162.048 28.0101 162.086 27.9657C162.142 27.9053 162.194 27.8449 162.241 27.7804C162.263 27.7563 162.284 27.7281 162.306 27.7039C162.383 27.6072 162.465 27.5065 162.542 27.4058C162.632 27.2849 162.722 27.1601 162.808 27.0392C162.847 26.9828 162.881 26.9304 162.92 26.8741C163.406 26.1409 163.797 25.3513 164.072 24.5134C164.119 24.3764 164.162 24.2314 164.2 24.0904C164.239 23.9575 164.274 23.8246 164.304 23.6876H181.143C182.075 23.6876 182.913 23.0511 182.995 22.181C183.089 21.198 182.264 20.3722 181.233 20.3722H176.433C176.451 20.3279 176.464 20.2876 176.481 20.2433C176.494 20.2111 176.502 20.1789 176.515 20.1507C176.545 20.0741 176.58 19.9936 176.614 19.917C176.622 19.9009 176.627 19.8848 176.635 19.8687C176.678 19.776 176.721 19.6874 176.764 19.5988C176.781 19.5706 176.794 19.5384 176.812 19.5102C176.842 19.4497 176.876 19.3893 176.906 19.3329C176.928 19.2966 176.945 19.2644 176.966 19.2282C176.996 19.1758 177.031 19.1234 177.061 19.0711C177.082 19.0348 177.104 18.9985 177.13 18.9663C177.164 18.914 177.198 18.8616 177.233 18.8132C177.254 18.781 177.276 18.7488 177.301 18.7166C177.344 18.6561 177.392 18.5957 177.439 18.5353C177.456 18.5151 177.469 18.495 177.486 18.4749C177.546 18.3983 177.611 18.3218 177.675 18.2452C177.701 18.217 177.727 18.1888 177.753 18.1606C177.796 18.1123 177.838 18.064 177.881 18.0196C177.912 17.9874 177.942 17.9592 177.972 17.927C178.015 17.8827 178.053 17.8424 178.096 17.7981C178.126 17.7659 178.156 17.7377 178.191 17.7054C178.234 17.6652 178.281 17.6208 178.324 17.5806C178.354 17.5524 178.384 17.5242 178.414 17.5C178.47 17.4476 178.53 17.3993 178.59 17.3509C178.612 17.3348 178.633 17.3147 178.655 17.2986C178.728 17.2381 178.805 17.1817 178.883 17.1213C178.913 17.0971 178.947 17.077 178.981 17.0528C179.033 17.0166 179.085 16.9803 179.136 16.9441C179.175 16.9199 179.209 16.8957 179.248 16.8716C179.299 16.8393 179.347 16.8071 179.398 16.7749C179.437 16.7507 179.476 16.7265 179.514 16.7064C179.566 16.6742 179.622 16.646 179.673 16.6137C179.712 16.5936 179.746 16.5735 179.785 16.5493C179.854 16.513 179.922 16.4768 179.991 16.4445C180.03 16.4244 180.064 16.4083 180.103 16.3882C180.18 16.3519 180.258 16.3156 180.339 16.2794C180.378 16.2633 180.421 16.2472 180.46 16.227C180.515 16.2028 180.571 16.1787 180.631 16.1585C180.674 16.1424 180.722 16.1263 180.765 16.1062C180.82 16.086 180.872 16.0659 180.928 16.0498C180.975 16.0337 181.018 16.0175 181.065 16.0055C181.121 15.9853 181.177 15.9692 181.237 15.9531C181.284 15.941 181.327 15.9249 181.375 15.9128C181.443 15.8927 181.512 15.8765 181.581 15.8604C181.645 15.8443 181.71 15.8282 181.774 15.8161C181.843 15.8 181.916 15.7839 181.985 15.7718C182.036 15.7637 182.084 15.7557 182.135 15.7476C182.191 15.7396 182.247 15.7275 182.303 15.7194C182.354 15.7114 182.41 15.7033 182.462 15.6993C182.518 15.6912 182.569 15.6872 182.625 15.6792C182.681 15.6751 182.737 15.6671 182.793 15.663C182.849 15.659 182.9 15.655 182.956 15.651C183.012 15.651 183.068 15.6429 183.124 15.6429C183.184 15.6429 183.24 15.6429 183.3 15.6389C183.347 15.6389 183.394 15.6389 183.441 15.6389C185.667 15.6389 187.665 16.5654 189.023 18.0277C190.153 19.2443 190.836 20.8315 190.836 22.5677C190.836 24.3039 190.106 25.9959 188.911 27.2285C187.558 28.6264 185.607 29.5046 183.446 29.5046C183.42 29.5046 181.001 29.4683 179.205 28.2195C178.543 27.7603 177.602 27.7764 176.979 28.28C176.717 28.4935 176.549 28.7513 176.455 29.0252C176.227 29.6818 176.455 30.4311 177.078 30.8662C179.836 32.7958 183.295 32.82 183.441 32.82C186.415 32.82 189.118 31.7001 191.09 29.8873C193.118 28.0262 194.377 25.4359 194.377 22.5717C194.377 21.327 194.136 20.1305 193.702 19.0267L193.681 19.0227Z" fill="white"/>
<path d="M153.544 25.8148C156.105 25.8148 158.181 23.8688 158.181 21.4682C158.181 19.0676 156.105 17.1216 153.544 17.1216C150.984 17.1216 148.908 19.0676 148.908 21.4682C148.908 23.8688 150.984 25.8148 153.544 25.8148Z" fill="#EC642C"/>
<path d="M155.874 22.2979H151.22C150.73 22.2979 150.335 21.9273 150.335 21.468C150.335 21.0088 150.73 20.6382 151.22 20.6382H155.874C156.363 20.6382 156.759 21.0088 156.759 21.468C156.759 21.9273 156.363 22.2979 155.874 22.2979Z" fill="white"/>
<path d="M174.56 9.69327C177.121 9.69327 179.196 7.74721 179.196 5.34663C179.196 2.94605 177.121 1 174.56 1C172 1 169.924 2.94605 169.924 5.34663C169.924 7.74721 172 9.69327 174.56 9.69327Z" fill="#EC642C"/>
<path d="M176.884 4.51652H175.445V2.96559C175.445 2.50635 175.05 2.13574 174.56 2.13574C174.07 2.13574 173.675 2.50635 173.675 2.96559V4.51652H172.231C171.741 4.51652 171.346 4.88713 171.346 5.34637C171.346 5.80561 171.741 6.17622 172.231 6.17622H173.675V7.72715C173.675 8.18638 174.07 8.557 174.56 8.557C175.05 8.557 175.445 8.18638 175.445 7.72715V6.17622H176.884C177.374 6.17622 177.769 5.80561 177.769 5.34637C177.769 4.88713 177.374 4.51652 176.884 4.51652Z" fill="white"/>
</svg>
