<svg width="42" height="61" viewBox="0 0 42 61" fill="none" xmlns="http://www.w3.org/2000/svg">
<path d="M10 32.9455C10 30.7665 8.20914 29 6 29C3.79086 29 2 30.7665 2 32.9455V57.0545C2 59.2335 3.79086 61 6 61C8.20914 61 10 59.2335 10 57.0545V32.9455Z" fill="white"/>
<path d="M4.71455 19.5349C7.31833 19.5349 9.4291 17.5331 9.4291 15.0637C9.4291 12.5944 7.31833 10.5926 4.71455 10.5926C2.11078 10.5926 0 12.5944 0 15.0637C0 17.5331 2.11078 19.5349 4.71455 19.5349Z" fill="#BFF600"/>
<path d="M15.7342 9.20108C16.4578 9.07312 17.0705 8.94421 17.6891 8.85985C22.0549 8.26363 25.8639 9.33473 29.0303 12.3338C29.2142 12.5082 29.3431 12.6599 29.3941 12.8239C31.458 14.8021 32.4035 17.7159 32.5544 20.6297C32.7393 21.5065 32.8213 22.3956 32.7623 23.2515C32.7643 23.3264 32.7583 23.4089 32.7423 23.5046C32.7403 23.5188 32.7373 23.533 32.7343 23.5473C32.6734 24.1056 32.5484 24.6468 32.3495 25.1596C31.7079 27.2004 30.5245 28.9559 28.8473 30.482C24.4846 34.4517 17.965 35.2602 12.9306 32.3265C11.6963 31.6071 10.6248 30.6317 9.38346 29.7018C7.12463 31.4535 4.79184 33.263 2.45605 35.0754C9.33348 42.3219 20.6736 46.0954 31.48 39.7162C42.8321 33.0156 44.2314 19.5406 39.3229 11.0589C33.7138 1.3678 21.5791 -1.74599 13.1995 0.904284C14.042 3.66451 14.8856 6.42569 15.7332 9.20108H15.7342Z" fill="white"/>
<path d="M15.7332 9.20111C16.4569 9.07314 17.0695 8.94423 17.6882 8.85987C22.0539 8.26365 25.863 9.33476 29.0293 12.3339C29.2132 12.5083 29.3422 12.6599 29.3931 12.8239C30.2647 13.6599 30.9373 14.6628 31.4351 15.7623C31.533 15.6145 31.638 15.4657 31.7549 15.2941C32.2536 15.3614 32.3976 15.5244 32.1587 16.0107C32.0058 16.3216 31.8948 16.5652 31.8319 16.7671C31.9308 17.0543 32.0198 17.3462 32.0987 17.642C32.2876 17.7842 32.5595 17.9311 32.9343 18.1188C33.544 18.424 34.1537 18.7292 34.7653 19.0306C35.7498 19.515 35.9037 19.4676 36.4435 18.5339C36.5144 18.4107 36.5914 18.2913 36.6654 18.169C36.7763 18.1491 36.8872 18.1282 36.9972 18.1083C37.0382 18.3311 37.1771 18.5889 37.1061 18.7709C36.6374 19.9596 35.9297 20.2212 34.6414 19.7548C34.4655 19.6913 34.2346 19.6562 34.0637 19.7093C33.2811 19.952 32.7604 19.7851 32.4086 19.1633C32.4795 19.6411 32.5205 20.1226 32.5465 20.6041C32.7344 21.4885 32.8194 22.3861 32.7594 23.2496C32.7614 23.3245 32.7554 23.407 32.7394 23.5027C32.7374 23.5169 32.7344 23.5312 32.7314 23.5454C32.6704 24.1037 32.5455 24.6449 32.3466 25.1577C31.7049 27.1985 30.5215 28.954 28.8444 30.4801C24.4817 34.4498 17.9621 35.2583 12.9277 32.3247C11.6933 31.6052 10.6219 30.6298 9.38053 29.7C7.1217 31.4517 4.78891 33.2612 2.45312 35.0735C9.33055 42.3201 20.6707 46.0936 31.477 39.7143C42.8291 33.0138 44.2284 19.5387 39.32 11.0571C33.7129 1.36782 21.5782 -1.74597 13.1985 0.904306C14.0411 3.66453 14.8847 6.42571 15.7322 9.20111H15.7332ZM36.0017 14.3263C36.6963 14.6808 37.5009 14.9538 38.0067 15.4856C38.2865 15.7794 38.1016 16.5178 38.0346 17.0448C38.0187 17.1737 37.6438 17.2609 37.2471 17.4609C37.5202 16.429 36.9885 15.5374 35.6519 14.786C35.7928 14.5983 35.9787 14.3149 35.9997 14.3263H36.0017ZM35.1301 15.7576C35.7118 16.0647 35.9227 16.6458 35.5229 17.1368C35.2561 17.4638 34.6804 17.5595 34.3536 17.7083C33.6029 17.1766 33.3911 16.6894 33.7309 16.1339C34.0417 15.6249 34.5834 15.4694 35.1301 15.7576ZM33.8178 13.5907C34.0427 13.768 34.0577 14.1889 34.1627 14.5054C33.8488 14.5898 33.477 14.8116 33.2371 14.7197C33.0093 14.6315 32.9203 14.2154 32.6584 13.7396C33.2121 13.6542 33.6529 13.4618 33.8168 13.5907H33.8178Z" fill="white"/>
<path d="M32.4094 19.1654C32.7613 19.7872 33.282 19.954 34.0646 19.7114C34.2355 19.6583 34.4664 19.6924 34.6423 19.7569C35.9306 20.2232 36.6383 19.9616 37.107 18.773C37.179 18.591 37.04 18.3332 36.9981 18.1104C36.8871 18.1303 36.7762 18.1512 36.6662 18.1711C36.5923 18.2924 36.5153 18.4128 36.4444 18.536C35.9046 19.4697 35.7497 19.5171 34.7662 19.0327C34.1545 18.7313 33.5449 18.426 32.9352 18.1208C32.5604 17.9331 32.2875 17.7862 32.0996 17.644C32.2315 18.1426 32.3345 18.6526 32.4104 19.1663L32.4094 19.1654Z" fill="white"/>
<path d="M31.8314 16.767C31.8943 16.5651 32.0053 16.3215 32.1582 16.0106C32.3971 15.5244 32.2521 15.3613 31.7544 15.294C31.6375 15.4656 31.5325 15.6144 31.4346 15.7623C31.5825 16.0893 31.7144 16.4249 31.8314 16.767Z" fill="white"/>
<path d="M34.3543 17.7081C33.6036 17.1764 33.3918 16.6892 33.7316 16.1337C34.0424 15.6247 34.5841 15.4692 35.1309 15.7574C35.7126 16.0645 35.9234 16.6456 35.5237 17.1366C35.2568 17.4636 34.6811 17.5593 34.3543 17.7081Z" fill="white"/>
<path d="M35.6534 14.7862C35.7943 14.5985 35.9802 14.3151 36.0012 14.3265C36.6958 14.681 37.5004 14.954 38.0061 15.4858C38.286 15.7796 38.1011 16.518 38.0341 17.045C38.0181 17.1739 37.6433 17.2611 37.2465 17.4611C37.5197 16.4292 36.988 15.5376 35.6514 14.7862H35.6534Z" fill="white"/>
<path d="M32.6582 13.7394C33.2119 13.6541 33.6527 13.4617 33.8166 13.5906C34.0415 13.7678 34.0565 14.1887 34.1614 14.5053C33.8476 14.5896 33.4758 14.8114 33.2359 14.7195C33.008 14.6314 32.9191 14.2152 32.6572 13.7394H32.6582Z" fill="white"/>
<path d="M37.6665 20.3284C36.841 16.518 36.2083 12.6705 35.7695 8.80127L37.6665 20.3284Z" fill="white"/>
<path d="M38.6363 18.493C38.1086 17.0484 37.4899 15.6342 36.7853 14.2598C36.7393 16.0598 36.6943 17.8598 36.6483 19.6608C36.6393 20.0125 36.6104 20.4087 36.3325 20.639C36.0586 19.1954 35.7848 17.7518 35.5109 16.3081C35.0812 17.9992 36.1566 19.7774 35.7978 21.4836C35.0152 19.7783 34.3695 18.0153 33.8668 16.2162C33.8758 17.1044 33.8858 17.9925 33.8948 18.8797C33.8018 18.3859 33.7089 17.8911 33.6159 17.3973C33.5529 17.6835 33.5809 17.9868 33.6949 18.2579" fill="white"/>
<path d="M33.7747 19.0004C33.146 17.0686 32.5183 15.1368 31.8896 13.205C32.7002 13.533 33.5238 13.8695 34.1965 14.4126C34.8681 14.9558 35.3778 15.7491 35.3469 16.5899C34.6392 15.2458 33.9316 13.9017 33.224 12.5576C33.138 13.3311 33.3599 14.1027 33.5798 14.8515C34.1495 16.7918 34.7182 18.7331 35.2879 20.6734C35.066 18.9937 34.7062 17.3302 34.2124 15.7046" fill="white"/>
<path d="M33.8339 19.7975C33.693 19.3766 33.5511 18.9558 33.4102 18.534L33.8339 19.7975Z" fill="white"/>
<path d="M33.4415 19.3852C33.2086 17.9805 32.7458 16.6108 32.0752 15.3416L33.4415 19.3852Z" fill="white"/>
<ellipse cx="14.6662" cy="5.05617" rx="4.33315" ry="4.40374" fill="white"/>
</svg>
